# xmcd CD database file
#
# Track frame offsets:
#	150
#	14183
#	27424
#	40760
#	52589
#	65587
#	77792
#	91320
#	104271
#	118328
#
# Disc length: 1765 seconds
#
# Revision: 0
# Processed by: cddbd v1.5.2PL0 Copyright (c) Steve Scherf et al.
# Submitted via: CDex 1.70beta2
#
DISCID=8006e30a
DTITLE=Rikki Leigh Heard - Somewhere In Texas
DYEAR=2002
DGENRE=Country
TTITLE0=Somewhere In Texas
TTITLE1=Ain't It Good To Be In Texas
TTITLE2=Under The X In Texas
TTITLE3=Still A Lot Of Love In San Antone
TTITLE4=Texas Fiddle
TTITLE5=Texas Blues
TTITLE6=Miles And Miles Of Texas
TTITLE7=Abilene
TTITLE8=San Antonio Rose
TTITLE9=Texas Music In My Soul
EXTD=YEAR: 2002
EXTT0=
EXTT1=
EXTT2=
EXTT3=
EXTT4=
EXTT5=
EXTT6=
EXTT7=
EXTT8=
EXTT9=
PLAYORDER=
